<mxfile host="app.diagrams.net" modified="2022-05-16T08:27:49.649Z" agent="5.0 (Macintosh; Intel Mac OS X 10_15_7) AppleWebKit/537.36 (KHTML, like Gecko) Chrome/101.0.4951.64 Safari/537.36" etag="HERKDN8hU0rdgKMprxHr" version="18.0.4" type="github">
  <diagram id="2GZqw9-q26ZN5Mv4OAI6" name="第 1 页">
    <mxGraphModel dx="840" dy="636" grid="1" gridSize="10" guides="1" tooltips="1" connect="1" arrows="1" fold="1" page="1" pageScale="1" pageWidth="827" pageHeight="1169" math="0" shadow="0">
      <root>
        <mxCell id="0" />
        <mxCell id="1" parent="0" />
        <mxCell id="yQiPnEU_5PFrZEUYjAex-3" style="rounded=0;orthogonalLoop=1;jettySize=auto;html=1;fontSize=26;entryX=0.5;entryY=0;entryDx=0;entryDy=0;fillColor=#6a00ff;strokeColor=#3700CC;strokeWidth=2;" edge="1" parent="1" source="yQiPnEU_5PFrZEUYjAex-1" target="yQiPnEU_5PFrZEUYjAex-2">
          <mxGeometry relative="1" as="geometry">
            <mxPoint x="150" y="240" as="targetPoint" />
          </mxGeometry>
        </mxCell>
        <mxCell id="yQiPnEU_5PFrZEUYjAex-6" style="rounded=0;orthogonalLoop=1;jettySize=auto;html=1;fontSize=26;entryX=0.5;entryY=0;entryDx=0;entryDy=0;fillColor=#6a00ff;strokeColor=#3700CC;strokeWidth=2;" edge="1" parent="1" source="yQiPnEU_5PFrZEUYjAex-1" target="yQiPnEU_5PFrZEUYjAex-5">
          <mxGeometry relative="1" as="geometry">
            <mxPoint x="260" y="240" as="targetPoint" />
          </mxGeometry>
        </mxCell>
        <mxCell id="yQiPnEU_5PFrZEUYjAex-1" value="&lt;font style=&quot;font-size: 26px;&quot;&gt;66&lt;/font&gt;" style="ellipse;whiteSpace=wrap;html=1;aspect=fixed;fillColor=#6a00ff;fontColor=#ffffff;strokeColor=#3700CC;" vertex="1" parent="1">
          <mxGeometry x="180" y="180" width="50" height="50" as="geometry" />
        </mxCell>
        <mxCell id="yQiPnEU_5PFrZEUYjAex-9" style="edgeStyle=none;rounded=0;orthogonalLoop=1;jettySize=auto;html=1;entryX=0.5;entryY=0;entryDx=0;entryDy=0;fontSize=26;fillColor=#6a00ff;strokeColor=#3700CC;strokeWidth=2;" edge="1" parent="1" source="yQiPnEU_5PFrZEUYjAex-2" target="yQiPnEU_5PFrZEUYjAex-7">
          <mxGeometry relative="1" as="geometry" />
        </mxCell>
        <mxCell id="yQiPnEU_5PFrZEUYjAex-10" style="edgeStyle=none;rounded=0;orthogonalLoop=1;jettySize=auto;html=1;entryX=0.5;entryY=0;entryDx=0;entryDy=0;fontSize=26;fillColor=#6a00ff;strokeColor=#3700CC;strokeWidth=2;" edge="1" parent="1" source="yQiPnEU_5PFrZEUYjAex-2" target="yQiPnEU_5PFrZEUYjAex-8">
          <mxGeometry relative="1" as="geometry" />
        </mxCell>
        <mxCell id="yQiPnEU_5PFrZEUYjAex-2" value="&lt;span style=&quot;font-size: 26px;&quot;&gt;24&lt;/span&gt;" style="ellipse;whiteSpace=wrap;html=1;aspect=fixed;dashed=1;strokeWidth=2;strokeColor=#FF0000;" vertex="1" parent="1">
          <mxGeometry x="120" y="260" width="50" height="50" as="geometry" />
        </mxCell>
        <mxCell id="yQiPnEU_5PFrZEUYjAex-5" value="&lt;span style=&quot;font-size: 26px;&quot;&gt;24&lt;/span&gt;" style="ellipse;whiteSpace=wrap;html=1;aspect=fixed;fillColor=#6a00ff;fontColor=#ffffff;strokeColor=#3700CC;" vertex="1" parent="1">
          <mxGeometry x="242" y="260" width="50" height="50" as="geometry" />
        </mxCell>
        <mxCell id="yQiPnEU_5PFrZEUYjAex-7" value="&lt;span style=&quot;font-size: 26px;&quot;&gt;2&lt;/span&gt;" style="ellipse;whiteSpace=wrap;html=1;aspect=fixed;fillColor=#6a00ff;fontColor=#ffffff;strokeColor=#3700CC;" vertex="1" parent="1">
          <mxGeometry x="60" y="340" width="50" height="50" as="geometry" />
        </mxCell>
        <mxCell id="yQiPnEU_5PFrZEUYjAex-8" value="&lt;span style=&quot;font-size: 26px;&quot;&gt;31&lt;/span&gt;" style="ellipse;whiteSpace=wrap;html=1;aspect=fixed;fillColor=#d80073;fontColor=#ffffff;strokeColor=#A50040;" vertex="1" parent="1">
          <mxGeometry x="180" y="340" width="50" height="50" as="geometry" />
        </mxCell>
        <mxCell id="yQiPnEU_5PFrZEUYjAex-12" style="rounded=0;orthogonalLoop=1;jettySize=auto;html=1;fontSize=26;entryX=0.5;entryY=0;entryDx=0;entryDy=0;fillColor=#6a00ff;strokeColor=#3700CC;strokeWidth=2;" edge="1" parent="1" source="yQiPnEU_5PFrZEUYjAex-14">
          <mxGeometry relative="1" as="geometry">
            <mxPoint x="135" y="550" as="targetPoint" />
          </mxGeometry>
        </mxCell>
        <mxCell id="yQiPnEU_5PFrZEUYjAex-13" style="rounded=0;orthogonalLoop=1;jettySize=auto;html=1;fontSize=26;entryX=0.5;entryY=0;entryDx=0;entryDy=0;fillColor=#6a00ff;strokeColor=#3700CC;strokeWidth=2;" edge="1" parent="1" source="yQiPnEU_5PFrZEUYjAex-14" target="yQiPnEU_5PFrZEUYjAex-18">
          <mxGeometry relative="1" as="geometry">
            <mxPoint x="250" y="530" as="targetPoint" />
          </mxGeometry>
        </mxCell>
        <mxCell id="yQiPnEU_5PFrZEUYjAex-14" value="&lt;font style=&quot;font-size: 26px;&quot;&gt;66&lt;/font&gt;" style="ellipse;whiteSpace=wrap;html=1;aspect=fixed;fillColor=#6a00ff;fontColor=#ffffff;strokeColor=#3700CC;" vertex="1" parent="1">
          <mxGeometry x="170" y="470" width="50" height="50" as="geometry" />
        </mxCell>
        <mxCell id="yQiPnEU_5PFrZEUYjAex-15" style="edgeStyle=none;rounded=0;orthogonalLoop=1;jettySize=auto;html=1;entryX=0.5;entryY=0;entryDx=0;entryDy=0;fontSize=26;fillColor=#6a00ff;strokeColor=#3700CC;strokeWidth=2;" edge="1" parent="1" target="yQiPnEU_5PFrZEUYjAex-19">
          <mxGeometry relative="1" as="geometry">
            <mxPoint x="116.57114649498533" y="591.89311571293" as="sourcePoint" />
          </mxGeometry>
        </mxCell>
        <mxCell id="yQiPnEU_5PFrZEUYjAex-18" value="&lt;span style=&quot;font-size: 26px;&quot;&gt;24&lt;/span&gt;" style="ellipse;whiteSpace=wrap;html=1;aspect=fixed;fillColor=#6a00ff;fontColor=#ffffff;strokeColor=#3700CC;" vertex="1" parent="1">
          <mxGeometry x="232" y="550" width="50" height="50" as="geometry" />
        </mxCell>
        <mxCell id="yQiPnEU_5PFrZEUYjAex-19" value="&lt;span style=&quot;font-size: 26px;&quot;&gt;2&lt;/span&gt;" style="ellipse;whiteSpace=wrap;html=1;aspect=fixed;fillColor=#6a00ff;fontColor=#ffffff;strokeColor=#3700CC;" vertex="1" parent="1">
          <mxGeometry x="50" y="630" width="50" height="50" as="geometry" />
        </mxCell>
        <mxCell id="yQiPnEU_5PFrZEUYjAex-21" value="&lt;span style=&quot;font-size: 26px;&quot;&gt;31&lt;/span&gt;" style="ellipse;whiteSpace=wrap;html=1;aspect=fixed;fillColor=#d80073;fontColor=#ffffff;strokeColor=#A50040;" vertex="1" parent="1">
          <mxGeometry x="110" y="550" width="50" height="50" as="geometry" />
        </mxCell>
      </root>
    </mxGraphModel>
  </diagram>
</mxfile>
